<svg xmlns="http://www.w3.org/2000/svg" width="27.803" height="22.5" viewBox="0 0 27.803 22.5"><defs><style>.a{fill:#9aa0a6;stroke:#fff;stroke-width:0.5px;}</style></defs><path class="a" d="M21.615,1H5.688C2.548,1,0,3.24,0,6V18c0,2.76,2.548,5,5.688,5H21.615c3.14,0,5.684-2.24,5.688-5V6c0-2.76-2.548-5-5.688-5ZM5.688,3H21.615a3.439,3.439,0,0,1,3.163,1.887l-8.712,7.659a3.763,3.763,0,0,1-4.828,0L2.526,4.887A3.439,3.439,0,0,1,5.688,3ZM21.615,21H5.688a3.226,3.226,0,0,1-3.413-3V7.5l7.354,6.46a6.265,6.265,0,0,0,8.045,0L25.028,7.5V18A3.226,3.226,0,0,1,21.615,21Z" transform="translate(0.25 -0.75)"/></svg>