<svg xmlns="http://www.w3.org/2000/svg" width="22.878" height="27.354" viewBox="0 0 22.878 27.354"><defs><style>.a{fill:#9aa0a6;stroke:#fff;stroke-width:0.5px;}</style></defs><g transform="translate(0.25 0.25)"><path class="a" d="M21.021,9.426V7.832a7.832,7.832,0,1,0-15.665,0V9.426A5.594,5.594,0,0,0,2,14.546v6.713a5.6,5.6,0,0,0,5.594,5.594H18.783a5.6,5.6,0,0,0,5.594-5.594V14.546A5.594,5.594,0,0,0,21.021,9.426ZM7.594,7.832a5.594,5.594,0,1,1,11.189,0V8.951H7.594ZM22.14,21.259a3.357,3.357,0,0,1-3.357,3.357H7.594a3.357,3.357,0,0,1-3.357-3.357V14.546a3.357,3.357,0,0,1,3.357-3.357H18.783a3.357,3.357,0,0,1,3.357,3.357Z" transform="translate(-2)"/><path class="a" d="M12.119,14A1.119,1.119,0,0,0,11,15.119v2.238a1.119,1.119,0,0,0,2.238,0V15.119A1.119,1.119,0,0,0,12.119,14Z" transform="translate(-0.93 1.665)"/></g></svg>